<svg width="16" height="15" viewBox="0 0 16 15" fill="none" xmlns="http://www.w3.org/2000/svg">
<path d="M2.34286 8.89492C2.0022 9.22761 1.99573 9.77347 2.32842 10.1141C2.66111 10.4548 3.20697 10.4613 3.54764 10.1286L2.34286 8.89492ZM5.10415 7.4034L4.50176 6.78657L4.50176 6.78657L5.10415 7.4034ZM7.07955 7.67272L7.81416 7.22138L7.81416 7.22138L7.07955 7.67272ZM8.02325 9.20873L7.28864 9.66006L7.28865 9.66006L8.02325 9.20873ZM9.99866 9.47804L10.601 10.0949L10.601 10.0949L9.99866 9.47804ZM12.7599 7.98653C13.1006 7.65384 13.1071 7.10798 12.7744 6.76731C12.4417 6.42665 11.8958 6.42018 11.5552 6.75287L12.7599 7.98653ZM8.91082 10.2081L8.79436 11.0624L8.79436 11.0624L8.91082 10.2081ZM6.19198 6.67332L6.07551 7.52759L6.07551 7.52759L6.19198 6.67332ZM3.54764 10.1286L5.70653 8.02023L4.50176 6.78657L2.34286 8.89492L3.54764 10.1286ZM6.34494 8.12405L7.28864 9.66006L8.75786 8.7574L7.81416 7.22138L6.34494 8.12405ZM10.601 10.0949L12.7599 7.98653L11.5552 6.75287L9.39627 8.86121L10.601 10.0949ZM7.28865 9.66006C7.47141 9.95753 7.65411 10.2586 7.83622 10.4802C8.02883 10.7146 8.33016 10.9991 8.79436 11.0624L9.02729 9.35386C9.19293 9.37644 9.2468 9.48079 9.16844 9.38544C9.13062 9.33942 9.08012 9.26913 9.00854 9.15898C8.93743 9.04957 8.85773 8.91995 8.75786 8.75739L7.28865 9.66006ZM9.39627 8.86121C9.2623 8.99205 9.15603 9.09574 9.06277 9.18213C8.96884 9.26914 8.90555 9.32216 8.86075 9.35489C8.77054 9.42079 8.85644 9.33057 9.02729 9.35386L8.79436 11.0624C9.26376 11.1264 9.63049 10.9281 9.87802 10.7472C10.1086 10.5787 10.3573 10.3329 10.601 10.0949L9.39627 8.86121ZM5.70653 8.02023C5.8405 7.8894 5.94677 7.78571 6.04003 7.69932C6.13396 7.61231 6.19725 7.55929 6.24205 7.52656C6.33225 7.46066 6.24635 7.55088 6.07551 7.52759L6.30845 5.81904C5.83904 5.75505 5.47232 5.95338 5.22479 6.13423C4.99419 6.30272 4.74552 6.54852 4.50176 6.78657L5.70653 8.02023ZM7.81416 7.22138C7.63139 6.92391 7.44869 6.62281 7.26658 6.40121C7.07396 6.16682 6.77264 5.88233 6.30845 5.81904L6.07551 7.52759C5.90988 7.50501 5.85601 7.40066 5.93436 7.49601C5.97218 7.54203 6.02268 7.61231 6.09426 7.72246C6.16537 7.83188 6.24507 7.96149 6.34494 8.12405L7.81416 7.22138Z" fill="#F179C1"/>
<path d="M6.95253 2.69332C7.43398 1.91502 8.56602 1.91502 9.04747 2.69332L14.5473 11.5842C15.1079 12.4905 14.331 13.6329 13.2821 13.4445L8.21766 12.5348C8.07365 12.5089 7.92617 12.5089 7.78216 12.5348L2.71794 13.4444C1.66902 13.6329 0.892079 12.4905 1.45272 11.5842L6.95253 2.69332Z" stroke="#7984F1" stroke-width="2.29914" stroke-linejoin="round"/>
</svg>
